inDegrees=yes
name=ik_lifting_orientations
DataType=double
version=3
OpenSimVersion=4.5-2024-01-10-34fd6af
endheader
time	pelvis_tilt	pelvis_list	pelvis_rotation	pelvis_tx	pelvis_ty	pelvis_tz	hip_flexion_r	hip_adduction_r	hip_rotation_r	knee_angle_r	knee_angle_r_beta	ankle_angle_r	subtalar_angle_r	mtp_angle_r	hip_flexion_l	hip_adduction_l	hip_rotation_l	knee_angle_l	knee_angle_l_beta	ankle_angle_l	subtalar_angle_l	mtp_angle_l	lumbar_extension	lumbar_bending	lumbar_rotation	arm_flex_r	arm_add_r	arm_rot_r	elbow_flex_r	pro_sup_r	wrist_flex_r	wrist_dev_r	arm_flex_l	arm_add_l	arm_rot_l	elbow_flex_l	pro_sup_l	wrist_flex_l	wrist_dev_l
1.21	-14.76574064619722	-11.49472978683125	-104.9706701999586	0	0.9399999998679526	0	45.09489515706594	-10.1841411977966	0	60.15732590917791	1.049943406310446	-5.052152026521291	0	0	45.09489515706594	-10.1841411977966	0	60.15732590917791	1.049943406310446	-5.052152026521291	0	0	-64.1283106258805	18.66271224804683	57.98158853395438	26.24372560936003	-39.64450254914147	-11.05227998580378	6.124850549247515	1.341935793706779	0	0	0	-11.58984782404158	0	88.67659196906851	1.341935793706779	0	0
1.22	-14.31001645065248	-11.23978619051094	-104.369201437266	0	0.9399999998679526	0	45.09394663708652	-10.17976993638672	0	60.15575792922471	1.049916039897657	-5.050674916781785	0	0	45.09394663708652	-10.17976993638672	0	60.15575792922471	1.049916039897657	-5.050674916781785	0	0	-62.21169718177088	19.23799789568233	56.13653853762615	25.32134663145234	-39.04048580623532	-10.37240508891058	7.232637417859349	1.331636857349436	0	0	0	-11.61066871463749	0	88.68674733700175	1.331636857349436	0	0
1.23	-13.84411692660641	-11.0279176637104	-103.7555188465389	0	0.9399999998679526	0	45.09381306059282	-10.17887840916138	0	60.15558446769256	1.049913012422796	-5.050347476157842	0	0	45.09381306059282	-10.17887840916138	0	60.15558446769256	1.049913012422796	-5.050347476157842	0	0	-60.3559702759788	19.79634108687832	54.27406014454045	22.87364564585596	-38.44593847919153	-10.72815142139847	9.387267365751265	1.330319523389945	0	0	0	-11.61313686931637	0	88.68804630447207	1.330319523389945	0	0
1.24	-14.15186602744961	-11.06300972877794	-104.6275417096168	0	0.9399999998679526	0	45.09315674282216	-10.17587296118901	0	60.15450454487218	1.049894164213913	-5.049334878235118	0	0	45.09315674282216	-10.17587296118901	0	60.15450454487218	1.049894164213913	-5.049334878235118	0	0	-59.33666578672872	19.39514558393963	53.82018011713299	22.05329846355802	-37.979088918009	-10.08203533341928	10.38390252935957	1.323189235654696	0	0	0	-11.62755545639043	0	88.6950771951756	1.323189235654696	0	0
1.25	-13.71613439278852	-10.81923798838153	-104.1831600191048	0	0.9399999998679526	0	45.0923411556504	-10.17218307616305	0	60.15316055451211	1.049870707157014	-5.048096486963352	0	0	45.0923411556504	-10.17218307616305	0	60.15316055451211	1.049870707157014	-5.048096486963352	0	0	-57.4824232615629	19.7232677120244	52.12686213777622	21.43724855387676	-37.53315213534898	-9.141750202756342	11.26156248880604	1.314309438024963	0	0	0	-11.64553870946996	0	88.70383320777	1.314309438024963	0	0
1.26	-13.27198622882035	-10.56566299868628	-103.6328656884047	0	0.9399999998679526	0	45.09161585361205	-10.16892517511815	0	60.15196777928688	1.049849889302098	-5.04700593991538	0	0	45.09161585361205	-10.16892517511815	0	60.15196777928688	1.049849889302098	-5.04700593991538	0	0	-55.5090706667355	20.01921687847208	50.39884970955757	21.10767054489951	-37.00737018440443	-7.963062726107538	11.96137515537136	1.306404172148454	0	0	0	-11.66155924412377	0	88.71162827379896	1.306404172148454	0	0
1.27	-12.84803759737351	-10.30734871530529	-103.1800134418282	0	0.9399999998679526	0	45.09078881958431	-10.16528679527573	0	60.15060232588491	1.049826057644451	-5.045796208936828	0	0	45.09078881958431	-10.16528679527573	0	60.15060232588491	1.049826057644451	-5.045796208936828	0	0	-53.65044635225803	20.23517715485718	48.67437630169641	20.54934362565112	-36.54755838963698	-6.999303381705707	13.02572587589289	1.297356863779812	0	0	0	-11.67994086101728	0	88.72054946278837	1.297356863779812	0	0
1.28	-12.63868478420326	-10.19003417897993	-102.8743050555777	0	0.9399999998679526	0	45.09009065939102	-10.16223838276518	0	60.1494525619077	1.049805990477428	-5.044785510202668	0	0	45.09009065939102	-10.16223838276518	0	60.1494525619077	1.049805990477428	-5.044785510202668	0	0	-52.60949341397615	20.32981138209482	47.82283600915176	19.35425054489531	-36.61077586644574	-6.036065903791977	14.82017424122244	1.289711353278798	0	0	0	-11.69548442764371	0	88.72808839507968	1.289711353278798	0	0
1.29	-12.2879608598233	-9.989675795099856	-102.4135486316968	0	0.9399999998679526	0	45.08953987811746	-10.15983555377447	0	60.14854881097326	1.049790217048004	-5.043989304739476	0	0	45.08953987811746	-10.15983555377447	0	60.14854881097326	1.049790217048004	-5.043989304739476	0	0	-50.60373302739871	20.3446603849817	46.410359379978	18.77949833546847	-36.24541471976572	-5.195044564142033	15.72221710758421	1.283680034481944	0	0	0	-11.70774521059807	0	88.73403563744168	1.283680034481944	0	0
1.3	-11.97073487989956	-9.785632473394251	-101.965692526753	0	0.9399999998679526	0	45.08894370270905	-10.15726399900556	0	60.14756948244624	1.049773124540749	-5.043140402937132	0	0	45.08894370270905	-10.15726399900556	0	60.14756948244624	1.049773124540749	-5.043140402937132	0	0	-48.64774620794689	20.3559586054096	44.90156580730007	18.29507752150631	-35.79878732690259	-4.147160224593557	16.68065464891292	1.277138974032022	0	0	0	-11.72105976472548	0	88.7404855158883	1.277138974032022	0	0
1.31	-11.63200335195733	-9.611065532578131	-101.4785086933317	0	0.9399999998679526	0	45.08844887586992	-10.15513448689495	0	60.14675899950416	1.049758978944878	-5.042438195929953	0	0	45.08844887586992	-10.15513448689495	0	60.14675899950416	1.049758978944878	-5.042438195929953	0	0	-46.68176715147172	20.35810939525606	43.32937686692782	18.23985944816588	-35.42848984763697	-3.03487565467208	17.37126428286251	1.27170894497088	0	0	0	-11.73211337850378	0	88.74583985066802	1.27170894497088	0	0
1.32	-11.27641697228965	-9.376986200640633	-101.0574205266558	0	0.9399999998679526	0	45.08785515217163	-10.15261181058489	0	60.14578477519762	1.049741975523076	-5.041609869078111	0	0	45.08785515217163	-10.15261181058489	0	60.14578477519762	1.049741975523076	-5.041609869078111	0	0	-44.86841883239292	20.31297506884241	41.70987710761684	18.13320963304915	-35.17359343998424	-1.785217996251514	18.44819087928518	1.265179360262231	0	0	0	-11.74542521621993	0	88.7522784135962	1.265179360262231	0	0
1.33	-10.92238982686851	-9.17825780286879	-100.6454579243645	0	0.9399999998679526	0	45.08726614028094	-10.1501683002685	0	60.14481168588481	1.049724991910651	-5.04081340198444	0	0	45.08726614028094	-10.1501683002685	0	60.14481168588481	1.049724991910651	-5.04081340198444	0	0	-43.00020299126038	20.19417267142777	40.10363765747986	17.67453466233713	-34.88244174275057	-1.031015990684864	19.76850712549082	1.258672403546567	0	0	0	-11.75873306122441	0	88.75869466445339	1.258672403546567	0	0
1.34	-10.50850264672061	-8.887924939406801	-100.1405310402695	0	0.9399999998679526	0	45.08663913906903	-10.14756965251109	0	60.14378006335508	1.04970698670087	-5.039967068860227	0	0	45.08663913906903	-10.14756965251109	0	60.14378006335508	1.04970698670087	-5.039967068860227	0	0	-41.04315270762501	20.02269575402083	38.47910894649291	17.26859690209148	-34.56500281934043	-0.2068771324431785	21.08897697064281	1.251746995600232	0	0	0	-11.77289366889289	0	88.76552353336835	1.251746995600232	0	0
1.35	-10.07749603506913	-8.607707745561438	-99.67046412574129	0	0.9399999998679526	0	45.08603136962506	-10.14506830308281	0	60.14278154804808	1.049689559321131	-5.039154524486993	0	0	45.08603136962506	-10.14506830308281	0	60.14278154804808	1.049689559321131	-5.039154524486993	0	0	-39.22855269743786	19.78874248684664	36.95784958169663	17.01423461592568	-34.30431197447331	0.6525047262637085	22.37457361971132	1.245027066597968	0	0	0	-11.78664316021779	0	88.77214978778427	1.245027066597968	0	0
1.36	-9.670660241022285	-8.317032984987099	-99.19242958612568	0	0.9399999998679526	0	45.08542835855965	-10.14261019899546	0	60.14179102714895	1.049672271470132	-5.038358669437176	0	0	45.08542835855965	-10.14261019899546	0	60.14179102714895	1.049672271470132	-5.038358669437176	0	0	-37.36569825373173	19.47271221684375	35.47773633279935	16.59814653988329	-34.04303170087388	1.398402464704449	23.88364673644222	1.238349367223415	0	0	0	-11.80032041100692	0	88.77873440140419	1.238349367223415	0	0
1.37	-9.232562925511802	-7.995446720594703	-98.81099361697035	0	0.9399999998679526	0	45.08479195382598	-10.14005544090057	0	60.14074309881048	1.0496539816703	-5.037535618602129	0	0	45.08479195382598	-10.14005544090057	0	60.14074309881048	1.0496539816703	-5.037535618602129	0	0	-35.44335401679403	19.0478085567912	33.97532183416514	16.11053852163397	-33.70293679736182	2.411195950853639	25.44628461468692	1.231282735592532	0	0	0	-11.81482136699953	0	88.78570252593958	1.231282735592532	0	0
1.38	-8.746561343010313	-7.642254160603949	-98.297521571956	0	0.9399999998679526	0	45.08413265348038	-10.13744349454224	0	60.13965621193297	1.049635011915691	-5.036697826795837	0	0	45.08413265348038	-10.13744349454224	0	60.13965621193297	1.049635011915691	-5.036697826795837	0	0	-33.52500137213922	18.63261801615431	32.35395609809363	15.70998772877029	-33.40144210374745	3.493523406935428	27.05219742124897	1.223945294541397	0	0	0	-11.82990123744051	0	88.79293768512483	1.223945294541397	0	0
1.39	-8.271860834921009	-7.282202838130745	-97.88054155824703	0	0.9399999998679526	0	45.08358707931624	-10.13528711494357	0	60.13876006323083	1.049619371170251	-5.036006962076353	0	0	45.08358707931624	-10.13528711494357	0	60.13876006323083	1.049619371170251	-5.036006962076353	0	0	-31.73463270532018	18.12983890598463	30.97462708198189	15.57332078682415	-33.22704974577135	4.836754000583245	28.51734939258833	1.217872691678391	0	0	0	-11.84238184397454	0	88.79892563761244	1.217872691678391	0	0
1.4	-7.838878744122291	-6.952699791368058	-97.44147140833145	0	0.9399999998679526	0	45.08306609290104	-10.13324085528271	0	60.13790536847507	1.049604453932664	-5.035352892956473	0	0	45.08306609290104	-10.13324085528271	0	60.13790536847507	1.049604453932664	-5.035352892956473	0	0	-29.9038123796897	17.59942647618279	29.51668388359776	15.60484367882553	-32.8821539450561	6.372868110617389	29.93349822701241	1.212068330338411	0	0	0	-11.8543182945449	0	88.80464908786342	1.212068330338411	0	0
1.41	-7.38488010499391	-6.589076680140514	-97.00538784148588	0	0.9399999998679526	0	45.08239193738916	-10.13065176690637	0	60.13679328497211	1.04958504441398	-5.034531214983069	0	0	45.08239193738916	-10.13065176690637	0	60.13679328497211	1.04958504441398	-5.034531214983069	0	0	-28.06529143731875	17.01544858886557	27.98778741761872	14.57067490522436	-32.85250627196597	7.87445224512496	32.45111058805241	1.204527029987313	0	0	0	-11.86987046879229	0	88.81208526514853	1.204527029987313	0	0
1.42	-6.958736673806051	-6.264553192521838	-96.56734784996999	0	0.9399999998679526	0	45.08185444867253	-10.12859300682034	0	60.13590959169777	1.049569621056765	-5.033878602553868	0	0	45.08185444867253	-10.12859300682034	0	60.13590959169777	1.049569621056765	-5.033878602553868	0	0	-26.3087465418754	16.41331583829326	26.5323548498183	14.5411515983897	-32.56716469765296	9.174040285169575	34.33148301350065	1.19851296291734	0	0	0	-11.88227453154629	0	88.81801549825859	1.19851296291734	0	0
